<?xml version="1.0" encoding="utf-8"?>
<!-- Generator: Adobe Illustrator 16.0.0, SVG Export Plug-In . SVG Version: 6.00 Build 0)  -->
<!DOCTYPE svg PUBLIC "-//W3C//DTD SVG 1.1//EN" "http://www.w3.org/Graphics/SVG/1.1/DTD/svg11.dtd">
<svg version="1.1" id="Layer_1" xmlns="http://www.w3.org/2000/svg" xmlns:xlink="http://www.w3.org/1999/xlink" x="0px" y="0px"
	 width="316.000488px" height="101px" viewBox="0 0 316.000488 101" enable-background="new 0 0 316.000488 101"
	 xml:space="preserve">
<g>
	<g>
		<path fill="#FBAD18" d="M207.987793,75.421387c-0.585938,2.239746-1.171875,4.479004-1.351563,6.718262
			c-0.276367,3.460938,0.701172,6.514648,7.419922,6.514648l-0.969727,4.478027h-27.890625l0.969727-4.478027
			c5.52832-0.407715,7.90625-2.137695,9.405273-8.143066l10.779297-43.158203c0.585938-2.23877,1.171875-4.478516,1.350586-6.717773
			c0.277344-3.460938-0.496094-6.514648-7.213867-6.514648l0.967773-4.478027h26.668945
			c21.172852,0,30.607422,5.496582,29.688477,16.998535c-0.878906,10.992676-9.080078,16.794434-20.56543,19.135742
			c-4.035156,0.813965-4.699219,0.203125-4.796875,1.424805c-0.06543,0.814453,1.930664,1.323242,4.133789,5.598633
			l10.151367,19.441406c3.183594,6.004883,5.1875,6.412598,10.887695,6.412598l-1.274414,4.478027
			c-4.001953,0.407715-9.311523,0.611328-12.060547,0.611328c-3.664063,0-3.949219-1.527344-7.304688-7.939941l-11.458008-22.189453
			c-2.912109-5.598145-5.297852-6.310547-12.830078-6.310547L207.987793,75.421387z M213.858887,52.926758
			c1.416992,0.102051,3.419922,0.508789,7.390625,0.508789c18.728516,0,23.761719-9.46582,24.338867-16.692871
			c0.708008-8.855469-6.217773-12.62207-17.618164-12.62207c-2.239258,0-4.597656,0.203613-6.039063,0.407715
			c-1.160156,3.053223-2.629883,7.430176-3.642578,11.196289L213.858887,52.926758z"/>
	</g>
	<g>
		<path fill="#1C75BC" d="M207.987793,75.421387c-0.585938,2.239746-1.171875,4.479004-1.351563,6.718262
			c-0.276367,3.460938,0.701172,6.514648,7.419922,6.514648l-0.969727,4.478027h-27.890625l0.969727-4.478027
			c5.52832-0.407715,7.90625-2.137695,9.405273-8.143066l10.779297-43.158203c0.585938-2.23877,1.171875-4.478516,1.350586-6.717773
			c0.277344-3.460938-0.496094-6.514648-7.213867-6.514648l0.967773-4.478027h26.668945
			c21.172852,0,30.607422,5.496582,29.688477,16.998535c-0.878906,10.992676-9.080078,16.794434-20.56543,19.135742
			c-4.035156,0.813965-4.699219,0.203125-4.796875,1.424805c-0.06543,0.814453,1.930664,1.323242,4.133789,5.598633
			l10.151367,19.441406c3.183594,6.004883,5.1875,6.412598,10.887695,6.412598l-1.274414,4.478027
			c-4.001953,0.407715-9.311523,0.611328-12.060547,0.611328c-3.664063,0-3.949219-1.527344-7.304688-7.939941l-11.458008-22.189453
			c-2.912109-5.598145-5.297852-6.310547-12.830078-6.310547L207.987793,75.421387z M213.858887,52.926758
			c1.416992,0.102051,3.419922,0.508789,7.390625,0.508789c18.728516,0,23.761719-9.46582,24.338867-16.692871
			c0.708008-8.855469-6.217773-12.62207-17.618164-12.62207c-2.239258,0-4.597656,0.203613-6.039063,0.407715
			c-1.160156,3.053223-2.629883,7.430176-3.642578,11.196289L213.858887,52.926758z"/>
	</g>
	<g opacity="0.95">
		<path fill="none" stroke="#000000" stroke-width="0.4" stroke-linejoin="round" d="M207.987793,75.421387
			c-0.585938,2.239746-1.171875,4.479004-1.351563,6.718262c-0.276367,3.460938,0.701172,6.514648,7.419922,6.514648
			l-0.969727,4.478027h-27.890625l0.969727-4.478027c5.52832-0.407715,7.90625-2.137695,9.405273-8.143066l10.779297-43.158203
			c0.585938-2.23877,1.171875-4.478516,1.350586-6.717773c0.277344-3.460938-0.496094-6.514648-7.213867-6.514648l0.967773-4.478027
			h26.668945c21.172852,0,30.607422,5.496582,29.688477,16.998535c-0.878906,10.992676-9.080078,16.794434-20.56543,19.135742
			c-4.035156,0.813965-4.699219,0.203125-4.796875,1.424805c-0.06543,0.814453,1.930664,1.323242,4.133789,5.598633
			l10.151367,19.441406c3.183594,6.004883,5.1875,6.412598,10.887695,6.412598l-1.274414,4.478027
			c-4.001953,0.407715-9.311523,0.611328-12.060547,0.611328c-3.664063,0-3.949219-1.527344-7.304688-7.939941l-11.458008-22.189453
			c-2.912109-5.598145-5.297852-6.310547-12.830078-6.310547L207.987793,75.421387z M213.858887,52.926758
			c1.416992,0.102051,3.419922,0.508789,7.390625,0.508789c18.728516,0,23.761719-9.46582,24.338867-16.692871
			c0.708008-8.855469-6.217773-12.62207-17.618164-12.62207c-2.239258,0-4.597656,0.203613-6.039063,0.407715
			c-1.160156,3.053223-2.629883,7.430176-3.642578,11.196289L213.858887,52.926758z"/>
	</g>
</g>
<g>
	<g>
		<path fill="#A51E22" d="M100.368164,58.919922l-2.665527,12.382324h10.994629c0.333008,0,0.555176,0.111328,0.555176,0.444336
			c0,0.166504-0.055664,0.277832-0.055664,0.388672l-0.444336,2.387695c-0.11084,0.555176-0.333008,0.666504-0.83252,0.666504
			H96.870117l-3.720703,17.268555c-0.11084,0.444336-0.277344,0.61084-0.666016,0.61084h-3.165039
			c-0.277832,0-0.444336-0.11084-0.444336-0.388672l7.884766-37.091797c0.111328-0.444336,0.333008-0.555176,0.666504-0.555176
			h16.713867c0.72168,0,0.887695,0.11084,0.887695,0.388672c0,0.166504-0.166016,0.443848-0.22168,0.61084l-1.333008,2.720703
			c-0.111328,0.166504-0.333008,0.166504-0.72168,0.166504H100.368164z"/>
		<path fill="#A51E22" d="M127.240723,55.532715c0.22168-0.388672,0.388672-0.499512,0.887695-0.499512h2.776367
			c0.611328,0,0.666992,0.055176,0.777344,0.72168l3.443359,36.480957c0.055664,0.277832,0.055664,0.444336,0.055664,0.555176
			c0,0.222168-0.166992,0.277832-0.5,0.277832h-3.387695c-0.443359,0-0.610352-0.166504-0.610352-0.666504l-0.888672-10.771973
			h-11.882813l-5.49707,10.883301c-0.277344,0.444336-0.333008,0.555176-0.666016,0.555176h-2.887207
			c-0.333496,0-0.5-0.11084-0.5-0.555176c0-0.277832,0.11084-0.444336,0.222168-0.666504L127.240723,55.532715z
			 M128.51709,65.583008c-0.166016-1.999023-0.166016-3.886719-0.166016-5.274902h-0.111328
			c-0.444336,1.22168-1.554688,3.998047-2.220703,5.274902l-6.274414,12.327148h9.716797L128.51709,65.583008z"/>
		<path fill="#A51E22" d="M163.772949,60.085938c-0.055664,0.055664-0.222656,0.222168-0.388672,0.222168
			c-0.5,0-1.277344-0.72168-2.22168-1.22168c-1.720703-0.943848-2.942383-1.110352-4.719727-1.110352
			c-4.108398,0-6.884766,2.665039-6.884766,6.773926c0,3.831543,4.331055,5.608398,7.94043,8.995605
			c1.999023,1.999023,3.719727,4.219727,3.719727,8.273438c0,7.051758-5.052734,11.827148-12.660156,11.827148
			c-4.719727,0-9.162109-2.054688-9.162109-3.053711c0-0.222168,0.111328-0.444336,0.27832-0.722168l1.110352-1.943359
			c0.277344-0.444336,0.388672-0.61084,0.666016-0.61084c0.27832,0,0.888672,0.444336,2.054688,1.166016
			c0.555664,0.333496,2.609375,1.443848,5.49707,1.443848c5.164063,0,7.663086-3.442871,7.663086-7.662598
			c0-7.996094-11.661133-8.495605-11.661133-17.602051c0-6.552246,5.164063-10.605469,11.882813-10.605469
			c4.109375,0,6.552734,1.166016,7.94043,1.998535c0.444336,0.277832,0.72168,0.5,0.72168,0.777832
			c0,0.22168-0.055664,0.333008-0.22168,0.610352L163.772949,60.085938z"/>
		<path fill="#A51E22" d="M175.930176,92.513672c-0.111328,0.444336-0.333008,0.555176-0.666016,0.555176h-3.276367
			c-0.277344,0-0.444336-0.11084-0.444336-0.333008c0-0.111328,0-0.111328,0.166992-0.888672l7.107422-33.09375h-8.607422
			c-0.277344,0-0.443359-0.111328-0.443359-0.333008c0-0.277832,0.054688-0.555664,0.166016-0.888672l0.388672-1.887695
			c0.111328-0.555664,0.388672-0.61084,0.833008-0.61084h21.37793c0.72168,0,0.888672,0.11084,0.888672,0.388672
			c0,0.166504-0.166992,0.443848-0.222656,0.61084l-1.276367,2.554199c-0.111328,0.166504-0.333984,0.166504-0.722656,0.166504
			h-8.050781L175.930176,92.513672z"/>
	</g>
	<g>
		<linearGradient id="SVGID_1_" gradientUnits="userSpaceOnUse" x1="141.147949" y1="93.846191" x2="141.147949" y2="54.255859">
			<stop  offset="0" style="stop-color:#363636"/>
			<stop  offset="1" style="stop-color:#666666"/>
		</linearGradient>
		<path fill="url(#SVGID_1_)" d="M100.368164,58.919922l-2.665527,12.382324h10.994629
			c0.333008,0,0.555176,0.111328,0.555176,0.444336c0,0.166504-0.055664,0.277832-0.055664,0.388672l-0.444336,2.387695
			c-0.11084,0.555176-0.333008,0.666504-0.83252,0.666504H96.870117l-3.720703,17.268555
			c-0.11084,0.444336-0.277344,0.61084-0.666016,0.61084h-3.165039c-0.277832,0-0.444336-0.11084-0.444336-0.388672
			l7.884766-37.091797c0.111328-0.444336,0.333008-0.555176,0.666504-0.555176h16.713867
			c0.72168,0,0.887695,0.11084,0.887695,0.388672c0,0.166504-0.166016,0.443848-0.22168,0.61084l-1.333008,2.720703
			c-0.111328,0.166504-0.333008,0.166504-0.72168,0.166504H100.368164z"/>
		<linearGradient id="SVGID_2_" gradientUnits="userSpaceOnUse" x1="141.147949" y1="93.846191" x2="141.147949" y2="54.255859">
			<stop  offset="0" style="stop-color:#363636"/>
			<stop  offset="1" style="stop-color:#666666"/>
		</linearGradient>
		<path fill="url(#SVGID_2_)" d="M127.240723,55.532715c0.22168-0.388672,0.388672-0.499512,0.887695-0.499512h2.776367
			c0.611328,0,0.666992,0.055176,0.777344,0.72168l3.443359,36.480957c0.055664,0.277832,0.055664,0.444336,0.055664,0.555176
			c0,0.222168-0.166992,0.277832-0.5,0.277832h-3.387695c-0.443359,0-0.610352-0.166504-0.610352-0.666504l-0.888672-10.771973
			h-11.882813l-5.49707,10.883301c-0.277344,0.444336-0.333008,0.555176-0.666016,0.555176h-2.887207
			c-0.333496,0-0.5-0.11084-0.5-0.555176c0-0.277832,0.11084-0.444336,0.222168-0.666504L127.240723,55.532715z
			 M128.51709,65.583008c-0.166016-1.999023-0.166016-3.886719-0.166016-5.274902h-0.111328
			c-0.444336,1.22168-1.554688,3.998047-2.220703,5.274902l-6.274414,12.327148h9.716797L128.51709,65.583008z"/>
		<linearGradient id="SVGID_3_" gradientUnits="userSpaceOnUse" x1="141.147949" y1="93.846191" x2="141.147949" y2="54.255859">
			<stop  offset="0" style="stop-color:#363636"/>
			<stop  offset="1" style="stop-color:#666666"/>
		</linearGradient>
		<path fill="url(#SVGID_3_)" d="M163.772949,60.085938c-0.055664,0.055664-0.222656,0.222168-0.388672,0.222168
			c-0.5,0-1.277344-0.72168-2.22168-1.22168c-1.720703-0.943848-2.942383-1.110352-4.719727-1.110352
			c-4.108398,0-6.884766,2.665039-6.884766,6.773926c0,3.831543,4.331055,5.608398,7.94043,8.995605
			c1.999023,1.999023,3.719727,4.219727,3.719727,8.273438c0,7.051758-5.052734,11.827148-12.660156,11.827148
			c-4.719727,0-9.162109-2.054688-9.162109-3.053711c0-0.222168,0.111328-0.444336,0.27832-0.722168l1.110352-1.943359
			c0.277344-0.444336,0.388672-0.61084,0.666016-0.61084c0.27832,0,0.888672,0.444336,2.054688,1.166016
			c0.555664,0.333496,2.609375,1.443848,5.49707,1.443848c5.164063,0,7.663086-3.442871,7.663086-7.662598
			c0-7.996094-11.661133-8.495605-11.661133-17.602051c0-6.552246,5.164063-10.605469,11.882813-10.605469
			c4.109375,0,6.552734,1.166016,7.94043,1.998535c0.444336,0.277832,0.72168,0.5,0.72168,0.777832
			c0,0.22168-0.055664,0.333008-0.22168,0.610352L163.772949,60.085938z"/>
		<linearGradient id="SVGID_4_" gradientUnits="userSpaceOnUse" x1="141.147949" y1="93.846191" x2="141.147949" y2="54.255859">
			<stop  offset="0" style="stop-color:#363636"/>
			<stop  offset="1" style="stop-color:#666666"/>
		</linearGradient>
		<path fill="url(#SVGID_4_)" d="M175.930176,92.513672c-0.111328,0.444336-0.333008,0.555176-0.666016,0.555176h-3.276367
			c-0.277344,0-0.444336-0.11084-0.444336-0.333008c0-0.111328,0-0.111328,0.166992-0.888672l7.107422-33.09375h-8.607422
			c-0.277344,0-0.443359-0.111328-0.443359-0.333008c0-0.277832,0.054688-0.555664,0.166016-0.888672l0.388672-1.887695
			c0.111328-0.555664,0.388672-0.61084,0.833008-0.61084h21.37793c0.72168,0,0.888672,0.11084,0.888672,0.388672
			c0,0.166504-0.166992,0.443848-0.222656,0.61084l-1.276367,2.554199c-0.111328,0.166504-0.333984,0.166504-0.722656,0.166504
			h-8.050781L175.930176,92.513672z"/>
	</g>
	<g>
		<path fill="none" stroke="#414042" stroke-width="0.25" d="M100.368164,58.919922l-2.665527,12.382324h10.994629
			c0.333008,0,0.555176,0.111328,0.555176,0.444336c0,0.166504-0.055664,0.277832-0.055664,0.388672l-0.444336,2.387695
			c-0.11084,0.555176-0.333008,0.666504-0.83252,0.666504H96.870117l-3.720703,17.268555
			c-0.11084,0.444336-0.277344,0.61084-0.666016,0.61084h-3.165039c-0.277832,0-0.444336-0.11084-0.444336-0.388672
			l7.884766-37.091797c0.111328-0.444336,0.333008-0.555176,0.666504-0.555176h16.713867
			c0.72168,0,0.887695,0.11084,0.887695,0.388672c0,0.166504-0.166016,0.443848-0.22168,0.61084l-1.333008,2.720703
			c-0.111328,0.166504-0.333008,0.166504-0.72168,0.166504H100.368164z"/>
		<path fill="none" stroke="#414042" stroke-width="0.25" d="M127.240723,55.532715
			c0.22168-0.388672,0.388672-0.499512,0.887695-0.499512h2.776367c0.611328,0,0.666992,0.055176,0.777344,0.72168
			l3.443359,36.480957c0.055664,0.277832,0.055664,0.444336,0.055664,0.555176c0,0.222168-0.166992,0.277832-0.5,0.277832h-3.387695
			c-0.443359,0-0.610352-0.166504-0.610352-0.666504l-0.888672-10.771973h-11.882813l-5.49707,10.883301
			c-0.277344,0.444336-0.333008,0.555176-0.666016,0.555176h-2.887207c-0.333496,0-0.5-0.11084-0.5-0.555176
			c0-0.277832,0.11084-0.444336,0.222168-0.666504L127.240723,55.532715z M128.51709,65.583008
			c-0.166016-1.999023-0.166016-3.886719-0.166016-5.274902h-0.111328c-0.444336,1.22168-1.554688,3.998047-2.220703,5.274902
			l-6.274414,12.327148h9.716797L128.51709,65.583008z"/>
		<path fill="none" stroke="#414042" stroke-width="0.25" d="M163.772949,60.085938
			c-0.055664,0.055664-0.222656,0.222168-0.388672,0.222168c-0.5,0-1.277344-0.72168-2.22168-1.22168
			c-1.720703-0.943848-2.942383-1.110352-4.719727-1.110352c-4.108398,0-6.884766,2.665039-6.884766,6.773926
			c0,3.831543,4.331055,5.608398,7.94043,8.995605c1.999023,1.999023,3.719727,4.219727,3.719727,8.273438
			c0,7.051758-5.052734,11.827148-12.660156,11.827148c-4.719727,0-9.162109-2.054688-9.162109-3.053711
			c0-0.222168,0.111328-0.444336,0.27832-0.722168l1.110352-1.943359c0.277344-0.444336,0.388672-0.61084,0.666016-0.61084
			c0.27832,0,0.888672,0.444336,2.054688,1.166016c0.555664,0.333496,2.609375,1.443848,5.49707,1.443848
			c5.164063,0,7.663086-3.442871,7.663086-7.662598c0-7.996094-11.661133-8.495605-11.661133-17.602051
			c0-6.552246,5.164063-10.605469,11.882813-10.605469c4.109375,0,6.552734,1.166016,7.94043,1.998535
			c0.444336,0.277832,0.72168,0.5,0.72168,0.777832c0,0.22168-0.055664,0.333008-0.22168,0.610352L163.772949,60.085938z"/>
		<path fill="none" stroke="#414042" stroke-width="0.25" d="M175.930176,92.513672
			c-0.111328,0.444336-0.333008,0.555176-0.666016,0.555176h-3.276367c-0.277344,0-0.444336-0.11084-0.444336-0.333008
			c0-0.111328,0-0.111328,0.166992-0.888672l7.107422-33.09375h-8.607422c-0.277344,0-0.443359-0.111328-0.443359-0.333008
			c0-0.277832,0.054688-0.555664,0.166016-0.888672l0.388672-1.887695c0.111328-0.555664,0.388672-0.61084,0.833008-0.61084
			h21.37793c0.72168,0,0.888672,0.11084,0.888672,0.388672c0,0.166504-0.166992,0.443848-0.222656,0.61084l-1.276367,2.554199
			c-0.111328,0.166504-0.333984,0.166504-0.722656,0.166504h-8.050781L175.930176,92.513672z"/>
	</g>
</g>
<polygon fill="#86888A" stroke="#414042" stroke-width="0.25" points="2.854492,89.186523 83.421387,89.186523 82.57666,93.121582 
	2.000488,93.121582 "/>
<polygon fill="#86888A" stroke="#414042" stroke-width="0.25" points="31.1875,80.731445 85.421387,80.731445 84.57666,84.666504 
	30.333496,84.666504 "/>
<polygon fill="#86888A" stroke="#414042" stroke-width="0.25" points="60.6875,63.47168 88.837891,63.47168 87.993164,67.406738 
	59.833496,67.406738 "/>
<polygon fill="#86888A" stroke="#414042" stroke-width="0.25" points="51.223633,72.319824 87.119629,72.319824 
	86.405762,76.255371 50.500488,76.255371 "/>
<polygon fill="#86888A" stroke="#414042" stroke-width="0.25" points="71.376953,55.450684 90.277832,55.450684 89.401367,59.38623 
	70.500488,59.38623 "/>
<radialGradient id="SVGID_5_" cx="262.666504" cy="90" r="122.609222" gradientUnits="userSpaceOnUse">
	<stop  offset="0" style="stop-color:#0173AE"/>
	<stop  offset="1" style="stop-color:#575757"/>
</radialGradient>
<path fill="url(#SVGID_5_)" stroke="#414042" stroke-width="0.3" d="M260.70752,88.165039l-1.207031,4.830078
	c3.592773,0,53.415039-15.703613,53.415039-44.860352c0-31.968262-53.915039-45.228027-96.582031-45.228027
	c-33.625,0-105.5,13.259766-118.833008,46.382813h51.31543c0-11.373047,10.370117-38.658691,67.517578-38.658691
	c49.352539,0,91.814453,17.03418,91.814453,37.503906C308.147949,75.415039,262.20752,88.165039,260.70752,88.165039z"/>
<g>
</g>
<g>
</g>
<g>
</g>
<g>
</g>
<g>
</g>
<g>
</g>
</svg>
